<svg xmlns="http://www.w3.org/2000/svg" viewBox="0 0 24 24" fill="#1DA1F2" width="24px" height="24px">
    <path d="M24,4.557a9.83,9.83,0,0,1-2.828.775,4.942,4.942,0,0,0,2.163-2.723,9.865,9.865,0,0,1-3.127,1.195A4.92,4.92,0,0,0,16.616,2,4.93,4.93,0,0,0,11.7,6.926,13.974,13.974,0,0,1,1.671,3.149,4.93,4.93,0,0,0,3.195,9.723a4.902,4.902,0,0,1-2.228-.616v.062a4.926,4.926,0,0,0,3.946,4.827,4.9,4.9,0,0,1-2.224.085,4.93,4.93,0,0,0,4.6,3.417,9.867,9.867,0,0,1-6.1,2.1,10.42,10.42,0,0,1-1.17-.068,13.94,13.94,0,0,0,7.548,2.212c9.057,0,14.009-7.5,14.009-14.009,0-.213,0-.425-.015-.636A10.012,10.012,0,0,0,24,4.557Z"/>
</svg>
